<mxfile host="app.diagrams.net" agent="Mozilla/5.0 (Windows NT 10.0; Win64; x64) AppleWebKit/537.36 (KHTML, like Gecko) Chrome/129.0.0.0 Safari/537.36" version="24.7.17">
  <diagram name="Page-1" id="T-FfSN23QufaH5tiH_a4">
    <mxGraphModel dx="1461" dy="776" grid="1" gridSize="10" guides="1" tooltips="1" connect="1" arrows="1" fold="1" page="1" pageScale="1" pageWidth="827" pageHeight="1169" math="0" shadow="0">
      <root>
        <mxCell id="0" />
        <mxCell id="1" parent="0" />
        <mxCell id="AahPi93fjwL1y0TYgw03-42" value="Visitor" style="swimlane;html=1;startSize=20;" parent="1" vertex="1">
          <mxGeometry x="200" y="60" width="390" height="920" as="geometry" />
        </mxCell>
        <mxCell id="AahPi93fjwL1y0TYgw03-43" style="edgeStyle=orthogonalEdgeStyle;rounded=0;orthogonalLoop=1;jettySize=auto;html=1;exitX=0.5;exitY=1;exitDx=0;exitDy=0;entryX=0.5;entryY=0;entryDx=0;entryDy=0;" parent="AahPi93fjwL1y0TYgw03-42" source="AahPi93fjwL1y0TYgw03-44" target="AahPi93fjwL1y0TYgw03-46" edge="1">
          <mxGeometry relative="1" as="geometry" />
        </mxCell>
        <mxCell id="AahPi93fjwL1y0TYgw03-44" value="Enter the website." style="rounded=1;whiteSpace=wrap;html=1;" parent="AahPi93fjwL1y0TYgw03-42" vertex="1">
          <mxGeometry x="105" y="110" width="160" height="50" as="geometry" />
        </mxCell>
        <mxCell id="AahPi93fjwL1y0TYgw03-45" style="edgeStyle=orthogonalEdgeStyle;rounded=0;orthogonalLoop=1;jettySize=auto;html=1;exitX=0.5;exitY=1;exitDx=0;exitDy=0;entryX=0.5;entryY=0;entryDx=0;entryDy=0;" parent="AahPi93fjwL1y0TYgw03-42" source="AahPi93fjwL1y0TYgw03-46" target="AahPi93fjwL1y0TYgw03-47" edge="1">
          <mxGeometry relative="1" as="geometry" />
        </mxCell>
        <mxCell id="AahPi93fjwL1y0TYgw03-46" value="Click &quot;Reset Password&quot;." style="rounded=1;whiteSpace=wrap;html=1;" parent="AahPi93fjwL1y0TYgw03-42" vertex="1">
          <mxGeometry x="105" y="200" width="160" height="50" as="geometry" />
        </mxCell>
        <mxCell id="AahPi93fjwL1y0TYgw03-55" style="edgeStyle=orthogonalEdgeStyle;rounded=0;orthogonalLoop=1;jettySize=auto;html=1;" parent="AahPi93fjwL1y0TYgw03-42" source="AahPi93fjwL1y0TYgw03-56" target="AahPi93fjwL1y0TYgw03-44" edge="1">
          <mxGeometry relative="1" as="geometry" />
        </mxCell>
        <mxCell id="AahPi93fjwL1y0TYgw03-47" value="Fill in their communication information used during their registration." style="rounded=1;whiteSpace=wrap;html=1;" parent="AahPi93fjwL1y0TYgw03-42" vertex="1">
          <mxGeometry x="60" y="310" width="250" height="50" as="geometry" />
        </mxCell>
        <mxCell id="AahPi93fjwL1y0TYgw03-56" value="" style="ellipse;html=1;shape=endState;fillColor=#000000;strokeColor=#ff0000;" parent="AahPi93fjwL1y0TYgw03-42" vertex="1">
          <mxGeometry x="170" y="30" width="30" height="30" as="geometry" />
        </mxCell>
        <mxCell id="Kv-dUYR7nQtk5KXshrPL-1" value="Click the link and enter a webpage to reset their password.&amp;nbsp;" style="rounded=1;whiteSpace=wrap;html=1;" vertex="1" parent="AahPi93fjwL1y0TYgw03-42">
          <mxGeometry x="60" y="470" width="250" height="50" as="geometry" />
        </mxCell>
        <mxCell id="AahPi93fjwL1y0TYgw03-57" value="System" style="swimlane;html=1;startSize=20;" parent="1" vertex="1">
          <mxGeometry x="590" y="60" width="500" height="920" as="geometry" />
        </mxCell>
        <mxCell id="AahPi93fjwL1y0TYgw03-58" style="edgeStyle=orthogonalEdgeStyle;rounded=0;orthogonalLoop=1;jettySize=auto;html=1;entryX=0.5;entryY=0;entryDx=0;entryDy=0;" parent="AahPi93fjwL1y0TYgw03-57" source="AahPi93fjwL1y0TYgw03-59" target="AahPi93fjwL1y0TYgw03-65" edge="1">
          <mxGeometry relative="1" as="geometry" />
        </mxCell>
        <mxCell id="AahPi93fjwL1y0TYgw03-59" value="Check whether the account exist." style="rounded=1;whiteSpace=wrap;html=1;" parent="AahPi93fjwL1y0TYgw03-57" vertex="1">
          <mxGeometry x="185" y="310" width="250" height="50" as="geometry" />
        </mxCell>
        <mxCell id="AahPi93fjwL1y0TYgw03-64" value="" style="ellipse;html=1;shape=endState;fillColor=#000000;strokeColor=#ff0000;" parent="AahPi93fjwL1y0TYgw03-57" vertex="1">
          <mxGeometry x="295" y="770" width="30" height="30" as="geometry" />
        </mxCell>
        <mxCell id="AahPi93fjwL1y0TYgw03-69" style="edgeStyle=orthogonalEdgeStyle;rounded=0;orthogonalLoop=1;jettySize=auto;html=1;entryX=0.5;entryY=0;entryDx=0;entryDy=0;" parent="AahPi93fjwL1y0TYgw03-57" source="AahPi93fjwL1y0TYgw03-65" target="AahPi93fjwL1y0TYgw03-66" edge="1">
          <mxGeometry relative="1" as="geometry" />
        </mxCell>
        <mxCell id="AahPi93fjwL1y0TYgw03-72" value="Yes" style="edgeLabel;html=1;align=center;verticalAlign=middle;resizable=0;points=[];" parent="AahPi93fjwL1y0TYgw03-69" vertex="1" connectable="0">
          <mxGeometry x="-0.1505" relative="1" as="geometry">
            <mxPoint as="offset" />
          </mxGeometry>
        </mxCell>
        <mxCell id="Kv-dUYR7nQtk5KXshrPL-7" style="edgeStyle=orthogonalEdgeStyle;rounded=0;orthogonalLoop=1;jettySize=auto;html=1;exitX=0.5;exitY=1;exitDx=0;exitDy=0;" edge="1" parent="AahPi93fjwL1y0TYgw03-57" source="AahPi93fjwL1y0TYgw03-65" target="AahPi93fjwL1y0TYgw03-64">
          <mxGeometry relative="1" as="geometry" />
        </mxCell>
        <mxCell id="Kv-dUYR7nQtk5KXshrPL-8" value="No" style="edgeLabel;html=1;align=center;verticalAlign=middle;resizable=0;points=[];" vertex="1" connectable="0" parent="Kv-dUYR7nQtk5KXshrPL-7">
          <mxGeometry x="0.1192" y="-1" relative="1" as="geometry">
            <mxPoint as="offset" />
          </mxGeometry>
        </mxCell>
        <mxCell id="AahPi93fjwL1y0TYgw03-65" value="" style="rhombus;whiteSpace=wrap;html=1;" parent="AahPi93fjwL1y0TYgw03-57" vertex="1">
          <mxGeometry x="295" y="400" width="30" height="40" as="geometry" />
        </mxCell>
        <mxCell id="Kv-dUYR7nQtk5KXshrPL-5" style="edgeStyle=orthogonalEdgeStyle;rounded=0;orthogonalLoop=1;jettySize=auto;html=1;exitX=0.5;exitY=1;exitDx=0;exitDy=0;entryX=0.5;entryY=0;entryDx=0;entryDy=0;" edge="1" parent="AahPi93fjwL1y0TYgw03-57" source="AahPi93fjwL1y0TYgw03-66" target="Kv-dUYR7nQtk5KXshrPL-4">
          <mxGeometry relative="1" as="geometry" />
        </mxCell>
        <mxCell id="AahPi93fjwL1y0TYgw03-66" value="Sends a text including their username and a link to reset the password." style="rounded=1;whiteSpace=wrap;html=1;" parent="AahPi93fjwL1y0TYgw03-57" vertex="1">
          <mxGeometry x="65" y="470" width="190" height="50" as="geometry" />
        </mxCell>
        <mxCell id="Kv-dUYR7nQtk5KXshrPL-9" style="edgeStyle=orthogonalEdgeStyle;rounded=0;orthogonalLoop=1;jettySize=auto;html=1;exitX=0.5;exitY=1;exitDx=0;exitDy=0;entryX=0;entryY=0.5;entryDx=0;entryDy=0;" edge="1" parent="AahPi93fjwL1y0TYgw03-57" source="Kv-dUYR7nQtk5KXshrPL-4" target="AahPi93fjwL1y0TYgw03-64">
          <mxGeometry relative="1" as="geometry" />
        </mxCell>
        <mxCell id="Kv-dUYR7nQtk5KXshrPL-4" value="Set the new password for the acount" style="rounded=1;whiteSpace=wrap;html=1;" vertex="1" parent="AahPi93fjwL1y0TYgw03-57">
          <mxGeometry x="65" y="610" width="190" height="50" as="geometry" />
        </mxCell>
        <mxCell id="AahPi93fjwL1y0TYgw03-68" style="edgeStyle=orthogonalEdgeStyle;rounded=0;orthogonalLoop=1;jettySize=auto;html=1;" parent="1" source="AahPi93fjwL1y0TYgw03-47" target="AahPi93fjwL1y0TYgw03-59" edge="1">
          <mxGeometry relative="1" as="geometry" />
        </mxCell>
        <mxCell id="Kv-dUYR7nQtk5KXshrPL-2" style="edgeStyle=orthogonalEdgeStyle;rounded=0;orthogonalLoop=1;jettySize=auto;html=1;" edge="1" parent="1" source="AahPi93fjwL1y0TYgw03-66" target="Kv-dUYR7nQtk5KXshrPL-1">
          <mxGeometry relative="1" as="geometry" />
        </mxCell>
        <mxCell id="Kv-dUYR7nQtk5KXshrPL-6" style="edgeStyle=orthogonalEdgeStyle;rounded=0;orthogonalLoop=1;jettySize=auto;html=1;exitX=0.5;exitY=1;exitDx=0;exitDy=0;entryX=0;entryY=0.5;entryDx=0;entryDy=0;" edge="1" parent="1" source="Kv-dUYR7nQtk5KXshrPL-1" target="Kv-dUYR7nQtk5KXshrPL-4">
          <mxGeometry relative="1" as="geometry" />
        </mxCell>
      </root>
    </mxGraphModel>
  </diagram>
</mxfile>
